<mxfile host="app.diagrams.net" agent="Mozilla/5.0 (Macintosh; Intel Mac OS X 10_15_7) AppleWebKit/605.1.15 (KHTML, like Gecko) Version/18.2 Safari/605.1.15" version="26.0.8">
  <diagram name="Page-1" id="vw2Q-ahyOCgPvIRrS2qS">
    <mxGraphModel dx="2823" dy="2823" grid="0" gridSize="10" guides="1" tooltips="1" connect="1" arrows="1" fold="1" page="0" pageScale="1" pageWidth="850" pageHeight="1100" math="0" shadow="0">
      <root>
        <mxCell id="0" />
        <mxCell id="1" parent="0" />
        <mxCell id="J9zmKtbcKLCU5IE8oh9W-1" value="React (Tanstack Start)&lt;div&gt;&lt;br&gt;&lt;/div&gt;" style="rounded=0;whiteSpace=wrap;html=1;" parent="1" vertex="1">
          <mxGeometry x="-1730" y="-1786" width="150" height="90" as="geometry" />
        </mxCell>
        <mxCell id="J9zmKtbcKLCU5IE8oh9W-3" value="ExpressJS" style="rounded=0;whiteSpace=wrap;html=1;" parent="1" vertex="1">
          <mxGeometry x="-1470" y="-1786" width="150" height="90" as="geometry" />
        </mxCell>
        <mxCell id="J9zmKtbcKLCU5IE8oh9W-5" value="" style="endArrow=classic;startArrow=classic;html=1;rounded=0;fontSize=12;startSize=8;endSize=8;curved=1;entryX=0;entryY=0.5;entryDx=0;entryDy=0;exitX=1;exitY=0.5;exitDx=0;exitDy=0;" parent="1" source="J9zmKtbcKLCU5IE8oh9W-1" target="J9zmKtbcKLCU5IE8oh9W-3" edge="1">
          <mxGeometry width="50" height="50" relative="1" as="geometry">
            <mxPoint x="-1547" y="-1709" as="sourcePoint" />
            <mxPoint x="-1497" y="-1759" as="targetPoint" />
          </mxGeometry>
        </mxCell>
        <mxCell id="xmq-IRBPGvj-lASaoL9s-1" value="MongoDB" style="shape=cylinder3;whiteSpace=wrap;html=1;boundedLbl=1;backgroundOutline=1;size=15;" vertex="1" parent="1">
          <mxGeometry x="-1227" y="-1800.5" width="91" height="119" as="geometry" />
        </mxCell>
        <mxCell id="xmq-IRBPGvj-lASaoL9s-2" value="" style="endArrow=none;dashed=1;html=1;dashPattern=1 3;strokeWidth=2;rounded=0;fontSize=12;startSize=8;endSize=8;curved=1;entryX=0;entryY=0.5;entryDx=0;entryDy=0;entryPerimeter=0;exitX=1;exitY=0.5;exitDx=0;exitDy=0;" edge="1" parent="1" source="J9zmKtbcKLCU5IE8oh9W-3" target="xmq-IRBPGvj-lASaoL9s-1">
          <mxGeometry width="50" height="50" relative="1" as="geometry">
            <mxPoint x="-1255" y="-1808" as="sourcePoint" />
            <mxPoint x="-1191" y="-1764" as="targetPoint" />
          </mxGeometry>
        </mxCell>
        <mxCell id="xmq-IRBPGvj-lASaoL9s-3" value="" style="image;sketch=0;aspect=fixed;html=1;points=[];align=center;fontSize=12;image=img/lib/mscae/Person.svg;" vertex="1" parent="1">
          <mxGeometry x="-1427" y="-1989" width="59.2" height="80" as="geometry" />
        </mxCell>
        <mxCell id="xmq-IRBPGvj-lASaoL9s-5" value="" style="endArrow=classic;startArrow=classic;html=1;rounded=0;fontSize=12;startSize=8;endSize=8;curved=1;exitX=0.507;exitY=0.963;exitDx=0;exitDy=0;exitPerimeter=0;entryX=0.5;entryY=0;entryDx=0;entryDy=0;" edge="1" parent="1" source="xmq-IRBPGvj-lASaoL9s-3" target="J9zmKtbcKLCU5IE8oh9W-3">
          <mxGeometry width="50" height="50" relative="1" as="geometry">
            <mxPoint x="-1570" y="-1731" as="sourcePoint" />
            <mxPoint x="-1383" y="-1823" as="targetPoint" />
          </mxGeometry>
        </mxCell>
      </root>
    </mxGraphModel>
  </diagram>
</mxfile>
